<svg width="1030" height="358" viewBox="0 0 1030 358" fill="none" xmlns="http://www.w3.org/2000/svg">
<path d="M352.039 66.0625H444.52V83.0547H371.57V123.094H427.918V139.5H371.57V202H352.039V66.0625ZM468.836 66.0625H488.367V184.812H546.57V202H468.836V66.0625ZM569.031 66.0625H656.824V83.0547H588.562V123.094H640.223V139.5H588.562V184.812H656.824V202H569.031V66.0625ZM718.152 133.152L675.184 66.0625H696.961L729.09 118.113L761.902 66.0625H782.41L738.66 131.883L786.219 202H764.539L728.016 146.336L694.129 202H672.742L718.152 133.152Z" fill="#FF7F32"/>
<path d="M386.227 273.766C384.293 274.117 381.686 274.293 378.404 274.293C375.143 274.293 372.193 273.844 369.557 272.945C366.939 272.047 364.684 270.719 362.789 268.961C358.727 265.191 356.695 259.938 356.695 253.199C356.695 248.805 357.74 244.996 359.83 241.773C362.662 237.418 367.008 234.645 372.867 233.453C374.664 233.102 376.803 232.926 379.283 232.926C381.783 232.926 383.785 233.062 385.289 233.336V238.932C383.922 238.502 381.803 238.287 378.932 238.287C376.08 238.287 373.658 238.639 371.666 239.342C369.674 240.045 368.023 241.051 366.715 242.359C364.098 244.918 362.789 248.531 362.789 253.199C362.789 257.906 364.078 261.637 366.656 264.391C369.449 267.359 373.463 268.844 378.697 268.844C381.764 268.844 384.273 268.609 386.227 268.141V273.766ZM392.232 253.668C392.232 250.484 392.711 247.604 393.668 245.025C394.625 242.447 395.953 240.25 397.652 238.434C401.227 234.645 405.865 232.75 411.568 232.75C417.291 232.75 421.92 234.645 425.455 238.434C429.049 242.281 430.846 247.359 430.846 253.668C430.846 259.977 429.049 265.035 425.455 268.844C421.939 272.594 417.311 274.469 411.568 274.469C405.846 274.469 401.207 272.594 397.652 268.844C394.039 265.016 392.232 259.957 392.232 253.668ZM398.092 253.639C398.092 258.092 399.176 261.773 401.344 264.684C403.785 267.926 407.193 269.547 411.568 269.547C415.943 269.547 419.342 267.926 421.764 264.684C423.912 261.812 424.986 258.15 424.986 253.697C424.986 249.205 423.912 245.504 421.764 242.594C419.342 239.312 415.943 237.672 411.568 237.672C407.174 237.672 403.766 239.312 401.344 242.594C399.176 245.504 398.092 249.186 398.092 253.639ZM438.521 233.219H442.74L464.039 263.307L463.717 259.088V233.219H469.518V274H465.328L447.545 249.01L444 243.912L444.322 249.01V274H438.521V233.219ZM501.803 271.158C500.416 272.135 498.639 272.906 496.471 273.473C494.303 274.02 491.646 274.293 488.502 274.293C485.377 274.293 482.223 274.107 479.039 273.736V268.053C481.891 268.697 484.762 269.02 487.652 269.02C490.543 269.02 492.711 268.863 494.156 268.551C495.602 268.219 496.764 267.789 497.643 267.262C499.264 266.285 500.074 265.016 500.074 263.453C500.074 262.242 499.762 261.305 499.137 260.641C498.141 259.605 496.705 258.658 494.83 257.799L487.33 254.371C484.752 253.16 482.926 252.037 481.852 251.002C479.547 248.775 478.395 246.197 478.395 243.268C478.395 240.26 479.703 237.828 482.32 235.973C485.191 233.941 489.273 232.926 494.566 232.926C497.984 232.926 501.109 233.062 503.941 233.336V238.932C501.539 238.385 498.854 238.111 495.885 238.111C492.936 238.111 490.787 238.268 489.439 238.58C488.111 238.873 487.066 239.254 486.305 239.723C484.918 240.582 484.225 241.715 484.225 243.121C484.225 244.488 484.664 245.621 485.543 246.52C486.324 247.281 487.75 248.16 489.82 249.156L497.525 252.818C500.084 254.029 501.871 255.172 502.887 256.246C503.922 257.32 504.684 258.404 505.172 259.498C505.66 260.572 505.904 261.871 505.904 263.395C505.904 264.898 505.572 266.324 504.908 267.672C504.244 269 503.209 270.162 501.803 271.158ZM523.6 238.375H511.324V233.219H541.734V238.375H529.459V274H523.6V238.375ZM549.117 233.219H560.689C568.404 233.219 573.375 235.504 575.602 240.074C576.402 241.754 576.803 243.648 576.803 245.758C576.803 247.848 576.52 249.615 575.953 251.061C575.406 252.506 574.635 253.746 573.639 254.781C571.725 256.773 569.088 258.082 565.729 258.707C567.115 262.984 569.469 265.934 572.789 267.555C573.883 268.102 574.801 268.395 575.543 268.434C576.793 268.473 577.672 268.434 578.18 268.316V274H576.861C572.467 274 568.727 272.438 565.641 269.312C562.926 266.598 561.1 263.18 560.162 259.059H554.977V274H549.117V233.219ZM560.309 254.371C563.844 254.371 566.461 253.688 568.16 252.32C569.859 250.953 570.709 248.824 570.709 245.934C570.709 242.086 568.922 239.605 565.348 238.492C564.098 238.102 562.584 237.906 560.807 237.906H554.977V254.371H560.309ZM599.186 269.43C605.592 269.43 608.795 265.494 608.795 257.623V233.219H614.654V257.623C614.654 263.385 613.199 267.701 610.289 270.572C607.652 273.17 603.951 274.469 599.186 274.469C591.822 274.469 587.047 271.432 584.859 265.357C584.078 263.229 583.688 260.65 583.688 257.623V233.219H589.547V257.623C589.547 265.494 592.76 269.43 599.186 269.43ZM651.422 273.766C649.488 274.117 646.881 274.293 643.6 274.293C640.338 274.293 637.389 273.844 634.752 272.945C632.135 272.047 629.879 270.719 627.984 268.961C623.922 265.191 621.891 259.938 621.891 253.199C621.891 248.805 622.936 244.996 625.025 241.773C627.857 237.418 632.203 234.645 638.062 233.453C639.859 233.102 641.998 232.926 644.479 232.926C646.979 232.926 648.98 233.062 650.484 233.336V238.932C649.117 238.502 646.998 238.287 644.127 238.287C641.275 238.287 638.854 238.639 636.861 239.342C634.869 240.045 633.219 241.051 631.91 242.359C629.293 244.918 627.984 248.531 627.984 253.199C627.984 257.906 629.273 261.637 631.852 264.391C634.645 267.359 638.658 268.844 643.893 268.844C646.959 268.844 649.469 268.609 651.422 268.141V273.766ZM668.736 238.375H656.461V233.219H686.871V238.375H674.596V274H668.736V238.375ZM693.844 233.219H699.703V274H693.844V233.219ZM707.467 253.668C707.467 250.484 707.945 247.604 708.902 245.025C709.859 242.447 711.188 240.25 712.887 238.434C716.461 234.645 721.1 232.75 726.803 232.75C732.525 232.75 737.154 234.645 740.689 238.434C744.283 242.281 746.08 247.359 746.08 253.668C746.08 259.977 744.283 265.035 740.689 268.844C737.174 272.594 732.545 274.469 726.803 274.469C721.08 274.469 716.441 272.594 712.887 268.844C709.273 265.016 707.467 259.957 707.467 253.668ZM713.326 253.639C713.326 258.092 714.41 261.773 716.578 264.684C719.02 267.926 722.428 269.547 726.803 269.547C731.178 269.547 734.576 267.926 736.998 264.684C739.146 261.812 740.221 258.15 740.221 253.697C740.221 249.205 739.146 245.504 736.998 242.594C734.576 239.312 731.178 237.672 726.803 237.672C722.408 237.672 719 239.312 716.578 242.594C714.41 245.504 713.326 249.186 713.326 253.639ZM753.756 233.219H757.975L779.273 263.307L778.951 259.088V233.219H784.752V274H780.562L762.779 249.01L759.234 243.912L759.557 249.01V274H753.756V233.219Z" fill="white"/>
<path d="M110 91H57L79.79 67.945L110 38V91Z" fill="white"/>
<rect x="110" y="146" width="125" height="53" fill="white"/>
<rect x="110" y="38" width="125" height="53" fill="white"/>
<path d="M110 199H57L79.79 175.945L110 146V199Z" fill="white"/>
<rect x="57" y="97" width="53" height="48" fill="white"/>
<rect x="57" y="205" width="53" height="125" fill="white"/>
</svg>
