<svg width="59" height="45" viewBox="0 0 59 45" fill="none" xmlns="http://www.w3.org/2000/svg">
<path d="M6.5 44.625C4.91875 44.625 3.5651 44.1436 2.43906 43.1807C1.31302 42.2179 0.75 41.0604 0.75 39.7083V5.29167C0.75 3.93958 1.31302 2.78212 2.43906 1.81927C3.5651 0.856424 4.91875 0.375 6.5 0.375H52.5C54.0813 0.375 55.4349 0.856424 56.5609 1.81927C57.687 2.78212 58.25 3.93958 58.25 5.29167V39.7083C58.25 41.0604 57.687 42.2179 56.5609 43.1807C55.4349 44.1436 54.0813 44.625 52.5 44.625H6.5ZM6.5 39.7083H52.5V5.29167H6.5V39.7083ZM9.375 34.7917H23.75V29.875H9.375V34.7917ZM36.8313 29.875L51.0625 17.7062L46.9656 14.2031L36.8313 22.9302L32.7344 19.4271L28.7094 22.9302L36.8313 29.875ZM9.375 24.9583H23.75V20.0417H9.375V24.9583ZM9.375 15.125H23.75V10.2083H9.375V15.125Z" fill="white"/>
</svg>
