<svg width="49" height="49" viewBox="0 0 49 49" fill="none" xmlns="http://www.w3.org/2000/svg">
<path d="M42 14L39.7833 9.21667L35 7L39.7833 4.78333L42 0L44.2167 4.78333L49 7L44.2167 9.21667L42 14ZM15.1667 14L12.95 9.21667L8.16667 7L12.95 4.78333L15.1667 0L17.3833 4.78333L22.1667 7L17.3833 9.21667L15.1667 14ZM42 40.8333L39.7833 36.05L35 33.8333L39.7833 31.6167L42 26.8333L44.2167 31.6167L49 33.8333L44.2167 36.05L42 40.8333ZM7.23333 48.3L0.7 41.7667C0.233333 41.3 0 40.7361 0 40.075C0 39.4139 0.233333 38.85 0.7 38.3833L26.7167 12.3667C27.1833 11.9 27.7472 11.6667 28.4083 11.6667C29.0694 11.6667 29.6333 11.9 30.1 12.3667L36.6333 18.9C37.1 19.3667 37.3333 19.9306 37.3333 20.5917C37.3333 21.2528 37.1 21.8167 36.6333 22.2833L10.6167 48.3C10.15 48.7667 9.58611 49 8.925 49C8.26389 49 7.7 48.7667 7.23333 48.3ZM8.98333 43.4L25.6667 26.6L22.4 23.3333L5.6 40.0167L8.98333 43.4Z" fill="#FF7F32"/>
</svg>
