<svg width="15" height="15" viewBox="0 0 15 15" fill="none" xmlns="http://www.w3.org/2000/svg">
<path d="M12.8571 4.28571L12.1786 2.82143L10.7143 2.14286L12.1786 1.46429L12.8571 0L13.5357 1.46429L15 2.14286L13.5357 2.82143L12.8571 4.28571ZM4.64286 4.28571L3.96429 2.82143L2.5 2.14286L3.96429 1.46429L4.64286 0L5.32143 1.46429L6.78571 2.14286L5.32143 2.82143L4.64286 4.28571ZM12.8571 12.5L12.1786 11.0357L10.7143 10.3571L12.1786 9.67857L12.8571 8.21429L13.5357 9.67857L15 10.3571L13.5357 11.0357L12.8571 12.5ZM2.21429 14.7857L0.214286 12.7857C0.0714285 12.6429 0 12.4702 0 12.2679C0 12.0655 0.0714285 11.8929 0.214286 11.75L8.17857 3.78571C8.32143 3.64286 8.49405 3.57143 8.69643 3.57143C8.89881 3.57143 9.07143 3.64286 9.21429 3.78571L11.2143 5.78571C11.3571 5.92857 11.4286 6.10119 11.4286 6.30357C11.4286 6.50595 11.3571 6.67857 11.2143 6.82143L3.25 14.7857C3.10714 14.9286 2.93452 15 2.73214 15C2.52976 15 2.35714 14.9286 2.21429 14.7857ZM2.75 13.2857L7.85714 8.14286L6.85714 7.14286L1.71429 12.25L2.75 13.2857Z" fill="#FF7F32"/>
</svg>
