<svg width="58" height="53" viewBox="0 0 58 53" fill="none" xmlns="http://www.w3.org/2000/svg">
<path d="M6.03151 1.62679L13.2212 8.19515L9.06901 11.9885L8.66495 12.3576L9.06901 12.7268L11.4315 14.8851L11.7688 15.1932L12.106 14.8851L16.325 11.0307L24.3587 18.3701L20.2065 22.1635L19.8024 22.5326L20.2065 22.9018L22.569 25.0601L22.9063 25.3682L23.2435 25.0601L27.4625 21.2057L35.4962 28.5452L31.344 32.3385L30.9399 32.7077L31.344 33.0768L33.7065 35.2351L34.0438 35.5432L34.381 35.2351L38.6 31.3807L46.6337 38.7201L42.4815 42.5135L42.0775 42.8827L42.4815 43.2518L44.844 45.4101L45.1813 45.7182L45.5185 45.4101L49.7375 41.5557L56.1503 47.4143C56.653 47.8736 56.9258 48.3425 57.0201 48.8188C57.1144 49.2954 57.0412 49.8355 56.7515 50.4568C56.4634 51.0748 56.0785 51.5137 55.6052 51.802C55.1298 52.0915 54.5319 52.2493 53.7875 52.2493H7.55C5.58385 52.2493 3.94911 51.6345 2.61381 50.4146C1.28055 49.1965 0.625 47.7235 0.625 45.966V3.72431C0.625 3.06789 0.790633 2.54266 1.09843 2.12087C1.40861 1.6958 1.89065 1.33837 2.58444 1.0684C3.27831 0.798406 3.89697 0.724603 4.45209 0.816321C5.00491 0.90766 5.53035 1.16894 6.03151 1.62679ZM9.75 43.4993V43.9993H10.25H38.2625H39.5511L38.5998 43.1302L10.5872 17.5385L9.75 16.7736V17.9076V43.4993Z" fill="white" stroke="white"/>
</svg>
