<svg width="44" height="30" viewBox="0 0 44 30" fill="none" xmlns="http://www.w3.org/2000/svg">
<path d="M22 24C24.5 24 26.6253 23.1253 28.376 21.376C30.1253 19.6253 31 17.5 31 15C31 12.5 30.1253 10.3747 28.376 8.624C26.6253 6.87467 24.5 6 22 6C19.5 6 17.3747 6.87467 15.624 8.624C13.8747 10.3747 13 12.5 13 15C13 17.5 13.8747 19.6253 15.624 21.376C17.3747 23.1253 19.5 24 22 24ZM22 20.4C20.5 20.4 19.2253 19.8747 18.176 18.824C17.1253 17.7747 16.6 16.5 16.6 15C16.6 13.5 17.1253 12.2247 18.176 11.174C19.2253 10.1247 20.5 9.6 22 9.6C23.5 9.6 24.7753 10.1247 25.826 11.174C26.8753 12.2247 27.4 13.5 27.4 15C27.4 16.5 26.8753 17.7747 25.826 18.824C24.7753 19.8747 23.5 20.4 22 20.4ZM22 30C17.1333 30 12.7 28.6413 8.7 25.924C4.7 23.208 1.8 19.5667 0 15C1.8 10.4333 4.7 6.79133 8.7 4.074C12.7 1.358 17.1333 0 22 0C26.8667 0 31.3 1.358 35.3 4.074C39.3 6.79133 42.2 10.4333 44 15C42.2 19.5667 39.3 23.208 35.3 25.924C31.3 28.6413 26.8667 30 22 30ZM22 26C25.7667 26 29.2253 25.008 32.376 23.024C35.5253 21.0413 37.9333 18.3667 39.6 15C37.9333 11.6333 35.5253 8.958 32.376 6.974C29.2253 4.99133 25.7667 4 22 4C18.2333 4 14.7747 4.99133 11.624 6.974C8.47467 8.958 6.06667 11.6333 4.4 15C6.06667 18.3667 8.47467 21.0413 11.624 23.024C14.7747 25.008 18.2333 26 22 26Z" fill="#FF7F32"/>
</svg>
