<svg width="46" height="46" viewBox="0 0 46 46" fill="none" xmlns="http://www.w3.org/2000/svg">
<path d="M15.7666 27.0442L17.9939 29.3418L22.5891 24.8872L27.0438 29.4824L29.3414 27.255L24.8867 22.6598L29.4819 18.2052L27.2546 15.9076L22.6594 20.3622L18.2047 15.767L15.9071 17.9944L20.3618 22.5896L15.7666 27.0442ZM11.1362 33.7614C9.59567 32.1722 8.44965 30.3862 7.69819 28.4035C6.94596 26.4215 6.58566 24.4123 6.61728 22.3761C6.6489 20.3399 7.07142 18.3429 7.88482 16.3852C8.69748 14.4268 9.8984 12.6773 11.4876 11.1367C13.0767 9.5961 14.8627 8.45009 16.8455 7.69863C18.8275 6.9464 20.8366 6.5861 22.8728 6.61772C24.909 6.64934 26.9064 7.07148 28.8649 7.88414C30.8226 8.69755 32.5717 9.89884 34.1123 11.488C35.6528 13.0772 36.7992 14.8628 37.5515 16.8448C38.3029 18.8275 38.6628 20.837 38.6312 22.8733C38.5996 24.9095 38.1771 26.9064 37.3637 28.8641C36.551 30.8226 35.3501 32.5721 33.7609 34.1127C32.1718 35.6533 30.3858 36.7993 28.403 37.5508C26.421 38.303 24.4119 38.6633 22.3757 38.6317C20.3395 38.6 18.3425 38.1775 16.3848 37.3641C14.4263 36.5515 12.6768 35.3505 11.1362 33.7614ZM13.4338 31.534C15.921 34.0997 18.918 35.4097 22.4249 35.4642C25.9317 35.5187 28.9679 34.3023 31.5336 31.8151C34.0993 29.3279 35.4093 26.3309 35.4638 22.8241C35.5182 19.3172 34.3019 16.281 31.8147 13.7153C29.3275 11.1497 26.3305 9.83964 22.8236 9.78518C19.3168 9.73072 16.2806 10.9471 13.7149 13.4343C11.1493 15.9215 9.8392 18.9185 9.78474 22.4253C9.73028 25.9321 10.9466 28.9684 13.4338 31.534Z" fill="#FF7F32"/>
</svg>
