<svg width="41" height="45" viewBox="0 0 41 45" fill="none" xmlns="http://www.w3.org/2000/svg">
<mask id="mask0_225_657" style="mask-type:alpha" maskUnits="userSpaceOnUse" x="0" y="0" width="41" height="45">
<rect width="41" height="45" fill="#D9D9D9"/>
</mask>
<g mask="url(#mask0_225_657)">
<path d="M11.9585 39.375C11.0189 39.375 10.2149 39.0081 9.54633 38.2744C8.87666 37.5394 8.54183 36.6562 8.54183 35.625V11.25H6.8335V7.5H15.3752V5.625H25.6252V7.5H34.1668V11.25H32.4585V35.625C32.4585 36.6562 32.1242 37.5394 31.4557 38.2744C30.786 39.0081 29.9814 39.375 29.0418 39.375H11.9585ZM29.0418 11.25H11.9585V35.625H29.0418V11.25ZM15.3752 31.875H18.7918V15H15.3752V31.875ZM22.2085 31.875H25.6252V15H22.2085V31.875Z" fill="#FF7F32"/>
</g>
</svg>
