<svg width="38" height="38" viewBox="0 0 38 38" fill="none" xmlns="http://www.w3.org/2000/svg">
<g filter="url(#filter0_d_486_791)">
<path d="M16 18H22V15H16V18ZM16 13.5H28V10.5H16V13.5ZM16 9H28V6H16V9ZM13 24C12.175 24 11.4688 23.7063 10.8813 23.1188C10.2938 22.5312 10 21.825 10 21V3C10 2.175 10.2938 1.46875 10.8813 0.88125C11.4688 0.29375 12.175 0 13 0H31C31.825 0 32.5312 0.29375 33.1188 0.88125C33.7063 1.46875 34 2.175 34 3V21C34 21.825 33.7063 22.5312 33.1188 23.1188C32.5312 23.7063 31.825 24 31 24H13ZM13 21H31V3H13V21ZM7 30C6.175 30 5.46875 29.7063 4.88125 29.1188C4.29375 28.5312 4 27.825 4 27V6H7V27H28V30H7Z" fill="#FF7F32"/>
</g>
<defs>
<filter id="filter0_d_486_791" x="0" y="0" width="38" height="38" filterUnits="userSpaceOnUse" color-interpolation-filters="sRGB">
<feFlood flood-opacity="0" result="BackgroundImageFix"/>
<feColorMatrix in="SourceAlpha" type="matrix" values="0 0 0 0 0 0 0 0 0 0 0 0 0 0 0 0 0 0 127 0" result="hardAlpha"/>
<feOffset dy="4"/>
<feGaussianBlur stdDeviation="2"/>
<feComposite in2="hardAlpha" operator="out"/>
<feColorMatrix type="matrix" values="0 0 0 0 0 0 0 0 0 0 0 0 0 0 0 0 0 0 0.25 0"/>
<feBlend mode="normal" in2="BackgroundImageFix" result="effect1_dropShadow_486_791"/>
<feBlend mode="normal" in="SourceGraphic" in2="effect1_dropShadow_486_791" result="shape"/>
</filter>
</defs>
</svg>
