<svg width="50" height="50" viewBox="0 0 50 50" fill="none" xmlns="http://www.w3.org/2000/svg">
<path d="M32.7482 6.03576L32.0625 5.76148V6.5V15V15.2369L32.2459 15.387C32.6914 15.7515 33.1166 16.1362 33.5214 16.5411C33.9263 16.9459 34.311 17.3711 34.6755 17.8166L34.8256 18H35.0625H43.5625H44.301L44.0267 17.3143C43.0014 14.751 41.5053 12.4857 39.5411 10.5214C37.5768 8.55723 35.3115 7.06108 32.7482 6.03576ZM18.0625 6.5V5.77199L17.383 6.03333C13.4954 7.52858 10.382 10.0108 8.05391 13.4709C5.72674 16.9296 4.5625 20.7771 4.5625 25C4.5625 29.2229 5.72674 33.0704 8.05391 36.5291C10.3806 39.9872 13.491 42.5093 17.3742 44.0882L18.0625 44.368V43.625V35V34.7526L17.8658 34.6025C16.3407 33.4386 15.1611 32.028 14.3211 30.368C13.4827 28.7111 13.0625 26.9242 13.0625 25C13.0625 23.0758 13.4827 21.2889 14.3211 19.632C15.1611 17.972 16.3407 16.5614 17.8658 15.3975L18.0625 15.2474V15V6.5ZM35.0625 32H34.8079L34.6581 32.2059C34.3437 32.6383 33.9785 33.0532 33.5614 33.4504C33.1328 33.8586 32.6943 34.2461 32.2459 34.613L32.0625 34.7631V35V43.5V44.2385L32.7482 43.9642C35.3115 42.9389 37.5768 41.4428 39.5411 39.4786C41.5053 37.5143 43.0014 35.249 44.0267 32.6857L44.301 32H43.5625H35.0625ZM28.0625 0.681827C33.6696 1.34342 38.4521 3.65921 42.4277 7.6348C46.4033 11.6104 48.7191 16.3929 49.3807 22H32.4109C32.0147 20.9893 31.4464 20.0921 30.7065 19.3121C29.9605 18.5258 29.0773 17.9305 28.0625 17.5274V0.681827ZM22.0625 49.3185C16.0123 48.6091 10.9557 45.9982 6.871 41.4773C2.66318 36.8201 0.5625 31.3357 0.5625 25C0.5625 18.6643 2.66318 13.1799 6.871 8.5227C10.9557 4.0018 16.0123 1.39095 22.0625 0.681487V17.5316C20.6163 18.1221 19.435 19.0707 18.5276 20.37C17.553 21.7654 17.0625 23.3131 17.0625 25C17.0625 26.6872 17.5532 28.2168 18.532 29.5738C19.4403 30.8329 20.6205 31.7577 22.0625 32.3437V49.3185ZM32.4107 28H49.3807C48.7191 33.6071 46.4033 38.3896 42.4277 42.3652C38.4521 46.3408 33.6696 48.6566 28.0625 49.3182V32.3482C29.0717 31.951 29.9519 31.3802 30.6973 30.6348C31.4427 29.8894 32.0135 29.0092 32.4107 28Z" fill="white" stroke="white"/>
</svg>
