<svg width="1030" height="358" viewBox="0 0 1030 358" fill="none" xmlns="http://www.w3.org/2000/svg">
<rect width="1030" height="358" fill="#101820"/>
<path d="M352.039 66.0625H444.52V83.0547H371.57V123.094H427.918V139.5H371.57V202H352.039V66.0625ZM468.836 66.0625H488.367V184.812H546.57V202H468.836V66.0625ZM569.031 66.0625H656.824V83.0547H588.562V123.094H640.223V139.5H588.562V184.812H656.824V202H569.031V66.0625ZM718.152 133.152L675.184 66.0625H696.961L729.09 118.113L761.902 66.0625H782.41L738.66 131.883L786.219 202H764.539L728.016 146.336L694.129 202H672.742L718.152 133.152Z" fill="#FF7F32"/>
<path d="M388.375 277.75C386.312 278.125 383.531 278.312 380.031 278.312C376.552 278.312 373.406 277.833 370.594 276.875C367.802 275.917 365.396 274.5 363.375 272.625C359.042 268.604 356.875 263 356.875 255.812C356.875 251.125 357.99 247.062 360.219 243.625C363.24 238.979 367.875 236.021 374.125 234.75C376.042 234.375 378.323 234.188 380.969 234.188C383.635 234.188 385.771 234.333 387.375 234.625V240.594C385.917 240.135 383.656 239.906 380.594 239.906C377.552 239.906 374.969 240.281 372.844 241.031C370.719 241.781 368.958 242.854 367.562 244.25C364.771 246.979 363.375 250.833 363.375 255.812C363.375 260.833 364.75 264.812 367.5 267.75C370.479 270.917 374.76 272.5 380.344 272.5C383.615 272.5 386.292 272.25 388.375 271.75V277.75ZM394.781 256.312C394.781 252.917 395.292 249.844 396.312 247.094C397.333 244.344 398.75 242 400.562 240.062C404.375 236.021 409.323 234 415.406 234C421.51 234 426.448 236.021 430.219 240.062C434.052 244.167 435.969 249.583 435.969 256.312C435.969 263.042 434.052 268.438 430.219 272.5C426.469 276.5 421.531 278.5 415.406 278.5C409.302 278.5 404.354 276.5 400.562 272.5C396.708 268.417 394.781 263.021 394.781 256.312ZM401.031 256.281C401.031 261.031 402.188 264.958 404.5 268.062C407.104 271.521 410.74 273.25 415.406 273.25C420.073 273.25 423.698 271.521 426.281 268.062C428.573 265 429.719 261.094 429.719 256.344C429.719 251.552 428.573 247.604 426.281 244.5C423.698 241 420.073 239.25 415.406 239.25C410.719 239.25 407.083 241 404.5 244.5C402.188 247.604 401.031 251.531 401.031 256.281ZM444.156 234.5H448.656L471.375 266.594L471.031 262.094V234.5H477.219V278H472.75L453.781 251.344L450 245.906L450.344 251.344V278H444.156V234.5ZM511.656 274.969C510.177 276.01 508.281 276.833 505.969 277.438C503.656 278.021 500.823 278.312 497.469 278.312C494.135 278.312 490.771 278.115 487.375 277.719V271.656C490.417 272.344 493.479 272.688 496.562 272.688C499.646 272.688 501.958 272.521 503.5 272.188C505.042 271.833 506.281 271.375 507.219 270.812C508.948 269.771 509.812 268.417 509.812 266.75C509.812 265.458 509.479 264.458 508.812 263.75C507.75 262.646 506.219 261.635 504.219 260.719L496.219 257.062C493.469 255.771 491.521 254.573 490.375 253.469C487.917 251.094 486.688 248.344 486.688 245.219C486.688 242.01 488.083 239.417 490.875 237.438C493.938 235.271 498.292 234.188 503.938 234.188C507.583 234.188 510.917 234.333 513.938 234.625V240.594C511.375 240.01 508.51 239.719 505.344 239.719C502.198 239.719 499.906 239.885 498.469 240.219C497.052 240.531 495.938 240.938 495.125 241.438C493.646 242.354 492.906 243.562 492.906 245.062C492.906 246.521 493.375 247.729 494.312 248.688C495.146 249.5 496.667 250.438 498.875 251.5L507.094 255.406C509.823 256.698 511.729 257.917 512.812 259.062C513.917 260.208 514.729 261.365 515.25 262.531C515.771 263.677 516.031 265.062 516.031 266.688C516.031 268.292 515.677 269.812 514.969 271.25C514.26 272.667 513.156 273.906 511.656 274.969ZM534.906 240H521.812V234.5H554.25V240H541.156V278H534.906V240ZM562.125 234.5H574.469C582.698 234.5 588 236.938 590.375 241.812C591.229 243.604 591.656 245.625 591.656 247.875C591.656 250.104 591.354 251.99 590.75 253.531C590.167 255.073 589.344 256.396 588.281 257.5C586.24 259.625 583.427 261.021 579.844 261.688C581.323 266.25 583.833 269.396 587.375 271.125C588.542 271.708 589.521 272.021 590.312 272.062C591.646 272.104 592.583 272.062 593.125 271.938V278H591.719C587.031 278 583.042 276.333 579.75 273C576.854 270.104 574.906 266.458 573.906 262.062H568.375V278H562.125V234.5ZM574.062 257.062C577.833 257.062 580.625 256.333 582.438 254.875C584.25 253.417 585.156 251.146 585.156 248.062C585.156 243.958 583.25 241.312 579.438 240.125C578.104 239.708 576.49 239.5 574.594 239.5H568.375V257.062H574.062ZM615.531 273.125C622.365 273.125 625.781 268.927 625.781 260.531V234.5H632.031V260.531C632.031 266.677 630.479 271.281 627.375 274.344C624.562 277.115 620.615 278.5 615.531 278.5C607.677 278.5 602.583 275.26 600.25 268.781C599.417 266.51 599 263.76 599 260.531V234.5H605.25V260.531C605.25 268.927 608.677 273.125 615.531 273.125ZM671.25 277.75C669.188 278.125 666.406 278.312 662.906 278.312C659.427 278.312 656.281 277.833 653.469 276.875C650.677 275.917 648.271 274.5 646.25 272.625C641.917 268.604 639.75 263 639.75 255.812C639.75 251.125 640.865 247.062 643.094 243.625C646.115 238.979 650.75 236.021 657 234.75C658.917 234.375 661.198 234.188 663.844 234.188C666.51 234.188 668.646 234.333 670.25 234.625V240.594C668.792 240.135 666.531 239.906 663.469 239.906C660.427 239.906 657.844 240.281 655.719 241.031C653.594 241.781 651.833 242.854 650.438 244.25C647.646 246.979 646.25 250.833 646.25 255.812C646.25 260.833 647.625 264.812 650.375 267.75C653.354 270.917 657.635 272.5 663.219 272.5C666.49 272.5 669.167 272.25 671.25 271.75V277.75ZM679.125 234.5H685.375V278H679.125V234.5ZM693.656 256.312C693.656 252.917 694.167 249.844 695.188 247.094C696.208 244.344 697.625 242 699.438 240.062C703.25 236.021 708.198 234 714.281 234C720.385 234 725.323 236.021 729.094 240.062C732.927 244.167 734.844 249.583 734.844 256.312C734.844 263.042 732.927 268.438 729.094 272.5C725.344 276.5 720.406 278.5 714.281 278.5C708.177 278.5 703.229 276.5 699.438 272.5C695.583 268.417 693.656 263.021 693.656 256.312ZM699.906 256.281C699.906 261.031 701.062 264.958 703.375 268.062C705.979 271.521 709.615 273.25 714.281 273.25C718.948 273.25 722.573 271.521 725.156 268.062C727.448 265 728.594 261.094 728.594 256.344C728.594 251.552 727.448 247.604 725.156 244.5C722.573 241 718.948 239.25 714.281 239.25C709.594 239.25 705.958 241 703.375 244.5C701.062 247.604 699.906 251.531 699.906 256.281ZM743.031 234.5H747.531L770.25 266.594L769.906 262.094V234.5H776.094V278H771.625L752.656 251.344L748.875 245.906L749.219 251.344V278H743.031V234.5Z" fill="white"/>
<path d="M110 91H57L79.79 67.945L110 38V91Z" fill="white"/>
<rect x="110" y="146" width="125" height="53" fill="white"/>
<rect x="110" y="38" width="125" height="53" fill="white"/>
<path d="M110 199H57L79.79 175.945L110 146V199Z" fill="white"/>
<rect x="57" y="97" width="53" height="48" fill="white"/>
<rect x="57" y="205" width="53" height="125" fill="white"/>
</svg>
