<svg width="731" height="329" viewBox="0 0 731 329" fill="none" xmlns="http://www.w3.org/2000/svg">
<path d="M295.039 63.0625H387.52V80.0547H314.57V120.094H370.918V136.5H314.57V199H295.039V63.0625ZM411.836 63.0625H431.367V181.812H489.57V199H411.836V63.0625ZM512.031 63.0625H599.824V80.0547H531.562V120.094H583.223V136.5H531.562V181.812H599.824V199H512.031V63.0625ZM661.152 130.152L618.184 63.0625H639.961L672.09 115.113L704.902 63.0625H725.41L681.66 128.883L729.219 199H707.539L671.016 143.336L637.129 199H615.742L661.152 130.152Z" fill="#FF7F32"/>
<path d="M331.375 274.75C329.312 275.125 326.531 275.312 323.031 275.312C319.552 275.312 316.406 274.833 313.594 273.875C310.802 272.917 308.396 271.5 306.375 269.625C302.042 265.604 299.875 260 299.875 252.812C299.875 248.125 300.99 244.062 303.219 240.625C306.24 235.979 310.875 233.021 317.125 231.75C319.042 231.375 321.323 231.188 323.969 231.188C326.635 231.188 328.771 231.333 330.375 231.625V237.594C328.917 237.135 326.656 236.906 323.594 236.906C320.552 236.906 317.969 237.281 315.844 238.031C313.719 238.781 311.958 239.854 310.562 241.25C307.771 243.979 306.375 247.833 306.375 252.812C306.375 257.833 307.75 261.812 310.5 264.75C313.479 267.917 317.76 269.5 323.344 269.5C326.615 269.5 329.292 269.25 331.375 268.75V274.75ZM337.781 253.312C337.781 249.917 338.292 246.844 339.312 244.094C340.333 241.344 341.75 239 343.562 237.062C347.375 233.021 352.323 231 358.406 231C364.51 231 369.448 233.021 373.219 237.062C377.052 241.167 378.969 246.583 378.969 253.312C378.969 260.042 377.052 265.438 373.219 269.5C369.469 273.5 364.531 275.5 358.406 275.5C352.302 275.5 347.354 273.5 343.562 269.5C339.708 265.417 337.781 260.021 337.781 253.312ZM344.031 253.281C344.031 258.031 345.188 261.958 347.5 265.062C350.104 268.521 353.74 270.25 358.406 270.25C363.073 270.25 366.698 268.521 369.281 265.062C371.573 262 372.719 258.094 372.719 253.344C372.719 248.552 371.573 244.604 369.281 241.5C366.698 238 363.073 236.25 358.406 236.25C353.719 236.25 350.083 238 347.5 241.5C345.188 244.604 344.031 248.531 344.031 253.281ZM387.156 231.5H391.656L414.375 263.594L414.031 259.094V231.5H420.219V275H415.75L396.781 248.344L393 242.906L393.344 248.344V275H387.156V231.5ZM454.656 271.969C453.177 273.01 451.281 273.833 448.969 274.438C446.656 275.021 443.823 275.312 440.469 275.312C437.135 275.312 433.771 275.115 430.375 274.719V268.656C433.417 269.344 436.479 269.688 439.562 269.688C442.646 269.688 444.958 269.521 446.5 269.188C448.042 268.833 449.281 268.375 450.219 267.812C451.948 266.771 452.812 265.417 452.812 263.75C452.812 262.458 452.479 261.458 451.812 260.75C450.75 259.646 449.219 258.635 447.219 257.719L439.219 254.062C436.469 252.771 434.521 251.573 433.375 250.469C430.917 248.094 429.688 245.344 429.688 242.219C429.688 239.01 431.083 236.417 433.875 234.438C436.938 232.271 441.292 231.188 446.938 231.188C450.583 231.188 453.917 231.333 456.938 231.625V237.594C454.375 237.01 451.51 236.719 448.344 236.719C445.198 236.719 442.906 236.885 441.469 237.219C440.052 237.531 438.938 237.938 438.125 238.438C436.646 239.354 435.906 240.562 435.906 242.062C435.906 243.521 436.375 244.729 437.312 245.688C438.146 246.5 439.667 247.438 441.875 248.5L450.094 252.406C452.823 253.698 454.729 254.917 455.812 256.062C456.917 257.208 457.729 258.365 458.25 259.531C458.771 260.677 459.031 262.062 459.031 263.688C459.031 265.292 458.677 266.812 457.969 268.25C457.26 269.667 456.156 270.906 454.656 271.969ZM477.906 237H464.812V231.5H497.25V237H484.156V275H477.906V237ZM505.125 231.5H517.469C525.698 231.5 531 233.938 533.375 238.812C534.229 240.604 534.656 242.625 534.656 244.875C534.656 247.104 534.354 248.99 533.75 250.531C533.167 252.073 532.344 253.396 531.281 254.5C529.24 256.625 526.427 258.021 522.844 258.688C524.323 263.25 526.833 266.396 530.375 268.125C531.542 268.708 532.521 269.021 533.312 269.062C534.646 269.104 535.583 269.062 536.125 268.938V275H534.719C530.031 275 526.042 273.333 522.75 270C519.854 267.104 517.906 263.458 516.906 259.062H511.375V275H505.125V231.5ZM517.062 254.062C520.833 254.062 523.625 253.333 525.438 251.875C527.25 250.417 528.156 248.146 528.156 245.062C528.156 240.958 526.25 238.312 522.438 237.125C521.104 236.708 519.49 236.5 517.594 236.5H511.375V254.062H517.062ZM558.531 270.125C565.365 270.125 568.781 265.927 568.781 257.531V231.5H575.031V257.531C575.031 263.677 573.479 268.281 570.375 271.344C567.562 274.115 563.615 275.5 558.531 275.5C550.677 275.5 545.583 272.26 543.25 265.781C542.417 263.51 542 260.76 542 257.531V231.5H548.25V257.531C548.25 265.927 551.677 270.125 558.531 270.125ZM614.25 274.75C612.188 275.125 609.406 275.312 605.906 275.312C602.427 275.312 599.281 274.833 596.469 273.875C593.677 272.917 591.271 271.5 589.25 269.625C584.917 265.604 582.75 260 582.75 252.812C582.75 248.125 583.865 244.062 586.094 240.625C589.115 235.979 593.75 233.021 600 231.75C601.917 231.375 604.198 231.188 606.844 231.188C609.51 231.188 611.646 231.333 613.25 231.625V237.594C611.792 237.135 609.531 236.906 606.469 236.906C603.427 236.906 600.844 237.281 598.719 238.031C596.594 238.781 594.833 239.854 593.438 241.25C590.646 243.979 589.25 247.833 589.25 252.812C589.25 257.833 590.625 261.812 593.375 264.75C596.354 267.917 600.635 269.5 606.219 269.5C609.49 269.5 612.167 269.25 614.25 268.75V274.75ZM622.125 231.5H628.375V275H622.125V231.5ZM636.656 253.312C636.656 249.917 637.167 246.844 638.188 244.094C639.208 241.344 640.625 239 642.438 237.062C646.25 233.021 651.198 231 657.281 231C663.385 231 668.323 233.021 672.094 237.062C675.927 241.167 677.844 246.583 677.844 253.312C677.844 260.042 675.927 265.438 672.094 269.5C668.344 273.5 663.406 275.5 657.281 275.5C651.177 275.5 646.229 273.5 642.438 269.5C638.583 265.417 636.656 260.021 636.656 253.312ZM642.906 253.281C642.906 258.031 644.062 261.958 646.375 265.062C648.979 268.521 652.615 270.25 657.281 270.25C661.948 270.25 665.573 268.521 668.156 265.062C670.448 262 671.594 258.094 671.594 253.344C671.594 248.552 670.448 244.604 668.156 241.5C665.573 238 661.948 236.25 657.281 236.25C652.594 236.25 648.958 238 646.375 241.5C644.062 244.604 642.906 248.531 642.906 253.281ZM686.031 231.5H690.531L713.25 263.594L712.906 259.094V231.5H719.094V275H714.625L695.656 248.344L691.875 242.906L692.219 248.344V275H686.031V231.5Z" fill="#101820"/>
<path d="M53 90H3.8147e-06L22.79 66.945L53 37L53 90Z" fill="#FF7F32"/>
<rect x="53" y="145" width="125" height="53" fill="#FF7F32"/>
<rect x="53" y="37" width="125" height="53" fill="#FF7F32"/>
<path d="M53 198H3.8147e-06L22.79 174.945L53 145L53 198Z" fill="#FF7F32"/>
<rect y="96" width="53" height="48" fill="#101820"/>
<rect y="204" width="53" height="125" fill="#101820"/>
</svg>
