<svg width="90" height="66" viewBox="0 0 90 66" fill="none" xmlns="http://www.w3.org/2000/svg">
<path d="M45 0C30.51 0 11.703 3.14621 11.703 3.14621L11.6556 3.19308C5.05614 4.10773 0 9.02207 0 14.9987V32.9971V33.0029V50.9955V51.0013C0.00644003 53.8557 1.18686 56.6146 3.3293 58.7826C5.47174 60.9506 8.43587 62.3858 11.6895 62.8304L11.703 62.8479C11.703 62.8479 30.51 66 45 66C59.49 66 78.297 62.8479 78.297 62.8479L78.3038 62.8421C81.5609 62.3984 84.5284 60.9621 86.6725 58.7915C88.8166 56.6209 89.9965 53.8586 90 51.0013V50.9955V33.0029V32.9971V14.9987C89.9952 12.1433 88.8155 9.38303 86.6729 7.21378C84.5303 5.04454 81.5653 3.60854 78.3105 3.16378L78.297 3.14621C78.297 3.14621 59.49 0 45 0ZM34.6154 19.1936L62.3077 32.9971L34.6154 46.8005V19.1936Z" fill="white"/>
</svg>
