<svg width="731" height="329" viewBox="0 0 731 329" fill="none" xmlns="http://www.w3.org/2000/svg">
<path d="M295.039 63.0625H387.52V80.0547H314.57V120.094H370.918V136.5H314.57V199H295.039V63.0625ZM411.836 63.0625H431.367V181.812H489.57V199H411.836V63.0625ZM512.031 63.0625H599.824V80.0547H531.562V120.094H583.223V136.5H531.562V181.812H599.824V199H512.031V63.0625ZM661.152 130.152L618.184 63.0625H639.961L672.09 115.113L704.902 63.0625H725.41L681.66 128.883L729.219 199H707.539L671.016 143.336L637.129 199H615.742L661.152 130.152Z" fill="#FF7F32"/>
<path d="M329.227 270.766C327.293 271.117 324.686 271.293 321.404 271.293C318.143 271.293 315.193 270.844 312.557 269.945C309.939 269.047 307.684 267.719 305.789 265.961C301.727 262.191 299.695 256.938 299.695 250.199C299.695 245.805 300.74 241.996 302.83 238.773C305.662 234.418 310.008 231.645 315.867 230.453C317.664 230.102 319.803 229.926 322.283 229.926C324.783 229.926 326.785 230.062 328.289 230.336V235.932C326.922 235.502 324.803 235.287 321.932 235.287C319.08 235.287 316.658 235.639 314.666 236.342C312.674 237.045 311.023 238.051 309.715 239.359C307.098 241.918 305.789 245.531 305.789 250.199C305.789 254.906 307.078 258.637 309.656 261.391C312.449 264.359 316.463 265.844 321.697 265.844C324.764 265.844 327.273 265.609 329.227 265.141V270.766ZM335.232 250.668C335.232 247.484 335.711 244.604 336.668 242.025C337.625 239.447 338.953 237.25 340.652 235.434C344.227 231.645 348.865 229.75 354.568 229.75C360.291 229.75 364.92 231.645 368.455 235.434C372.049 239.281 373.846 244.359 373.846 250.668C373.846 256.977 372.049 262.035 368.455 265.844C364.939 269.594 360.311 271.469 354.568 271.469C348.846 271.469 344.207 269.594 340.652 265.844C337.039 262.016 335.232 256.957 335.232 250.668ZM341.092 250.639C341.092 255.092 342.176 258.773 344.344 261.684C346.785 264.926 350.193 266.547 354.568 266.547C358.943 266.547 362.342 264.926 364.764 261.684C366.912 258.812 367.986 255.15 367.986 250.697C367.986 246.205 366.912 242.504 364.764 239.594C362.342 236.312 358.943 234.672 354.568 234.672C350.174 234.672 346.766 236.312 344.344 239.594C342.176 242.504 341.092 246.186 341.092 250.639ZM381.521 230.219H385.74L407.039 260.307L406.717 256.088V230.219H412.518V271H408.328L390.545 246.01L387 240.912L387.322 246.01V271H381.521V230.219ZM444.803 268.158C443.416 269.135 441.639 269.906 439.471 270.473C437.303 271.02 434.646 271.293 431.502 271.293C428.377 271.293 425.223 271.107 422.039 270.736V265.053C424.891 265.697 427.762 266.02 430.652 266.02C433.543 266.02 435.711 265.863 437.156 265.551C438.602 265.219 439.764 264.789 440.643 264.262C442.264 263.285 443.074 262.016 443.074 260.453C443.074 259.242 442.762 258.305 442.137 257.641C441.141 256.605 439.705 255.658 437.83 254.799L430.33 251.371C427.752 250.16 425.926 249.037 424.852 248.002C422.547 245.775 421.395 243.197 421.395 240.268C421.395 237.26 422.703 234.828 425.32 232.973C428.191 230.941 432.273 229.926 437.566 229.926C440.984 229.926 444.109 230.062 446.941 230.336V235.932C444.539 235.385 441.854 235.111 438.885 235.111C435.936 235.111 433.787 235.268 432.439 235.58C431.111 235.873 430.066 236.254 429.305 236.723C427.918 237.582 427.225 238.715 427.225 240.121C427.225 241.488 427.664 242.621 428.543 243.52C429.324 244.281 430.75 245.16 432.82 246.156L440.525 249.818C443.084 251.029 444.871 252.172 445.887 253.246C446.922 254.32 447.684 255.404 448.172 256.498C448.66 257.572 448.904 258.871 448.904 260.395C448.904 261.898 448.572 263.324 447.908 264.672C447.244 266 446.209 267.162 444.803 268.158ZM466.6 235.375H454.324V230.219H484.734V235.375H472.459V271H466.6V235.375ZM492.117 230.219H503.689C511.404 230.219 516.375 232.504 518.602 237.074C519.402 238.754 519.803 240.648 519.803 242.758C519.803 244.848 519.52 246.615 518.953 248.061C518.406 249.506 517.635 250.746 516.639 251.781C514.725 253.773 512.088 255.082 508.729 255.707C510.115 259.984 512.469 262.934 515.789 264.555C516.883 265.102 517.801 265.395 518.543 265.434C519.793 265.473 520.672 265.434 521.18 265.316V271H519.861C515.467 271 511.727 269.438 508.641 266.312C505.926 263.598 504.1 260.18 503.162 256.059H497.977V271H492.117V230.219ZM503.309 251.371C506.844 251.371 509.461 250.688 511.16 249.32C512.859 247.953 513.709 245.824 513.709 242.934C513.709 239.086 511.922 236.605 508.348 235.492C507.098 235.102 505.584 234.906 503.807 234.906H497.977V251.371H503.309ZM542.186 266.43C548.592 266.43 551.795 262.494 551.795 254.623V230.219H557.654V254.623C557.654 260.385 556.199 264.701 553.289 267.572C550.652 270.17 546.951 271.469 542.186 271.469C534.822 271.469 530.047 268.432 527.859 262.357C527.078 260.229 526.688 257.65 526.688 254.623V230.219H532.547V254.623C532.547 262.494 535.76 266.43 542.186 266.43ZM594.422 270.766C592.488 271.117 589.881 271.293 586.6 271.293C583.338 271.293 580.389 270.844 577.752 269.945C575.135 269.047 572.879 267.719 570.984 265.961C566.922 262.191 564.891 256.938 564.891 250.199C564.891 245.805 565.936 241.996 568.025 238.773C570.857 234.418 575.203 231.645 581.062 230.453C582.859 230.102 584.998 229.926 587.479 229.926C589.979 229.926 591.98 230.062 593.484 230.336V235.932C592.117 235.502 589.998 235.287 587.127 235.287C584.275 235.287 581.854 235.639 579.861 236.342C577.869 237.045 576.219 238.051 574.91 239.359C572.293 241.918 570.984 245.531 570.984 250.199C570.984 254.906 572.273 258.637 574.852 261.391C577.645 264.359 581.658 265.844 586.893 265.844C589.959 265.844 592.469 265.609 594.422 265.141V270.766ZM611.736 235.375H599.461V230.219H629.871V235.375H617.596V271H611.736V235.375ZM636.844 230.219H642.703V271H636.844V230.219ZM650.467 250.668C650.467 247.484 650.945 244.604 651.902 242.025C652.859 239.447 654.188 237.25 655.887 235.434C659.461 231.645 664.1 229.75 669.803 229.75C675.525 229.75 680.154 231.645 683.689 235.434C687.283 239.281 689.08 244.359 689.08 250.668C689.08 256.977 687.283 262.035 683.689 265.844C680.174 269.594 675.545 271.469 669.803 271.469C664.08 271.469 659.441 269.594 655.887 265.844C652.273 262.016 650.467 256.957 650.467 250.668ZM656.326 250.639C656.326 255.092 657.41 258.773 659.578 261.684C662.02 264.926 665.428 266.547 669.803 266.547C674.178 266.547 677.576 264.926 679.998 261.684C682.146 258.812 683.221 255.15 683.221 250.697C683.221 246.205 682.146 242.504 679.998 239.594C677.576 236.312 674.178 234.672 669.803 234.672C665.408 234.672 662 236.312 659.578 239.594C657.41 242.504 656.326 246.186 656.326 250.639ZM696.756 230.219H700.975L722.273 260.307L721.951 256.088V230.219H727.752V271H723.562L705.779 246.01L702.234 240.912L702.557 246.01V271H696.756V230.219Z" fill="#101820"/>
<path d="M53 90H3.8147e-06L22.79 66.945L53 37L53 90Z" fill="#FF7F32"/>
<rect x="53" y="145" width="125" height="53" fill="#FF7F32"/>
<rect x="53" y="37" width="125" height="53" fill="#FF7F32"/>
<path d="M53 198H3.8147e-06L22.79 174.945L53 145L53 198Z" fill="#FF7F32"/>
<rect y="96" width="53" height="48" fill="#101820"/>
<rect y="204" width="53" height="125" fill="#101820"/>
</svg>
