<svg width="46" height="60" viewBox="0 0 46 60" fill="none" xmlns="http://www.w3.org/2000/svg">
<path d="M6.28389 59.1999C4.74622 59.1999 3.43035 58.6558 2.33628 57.5677C1.24035 56.4778 0.692383 55.1682 0.692383 53.639V25.8347C0.692383 24.3054 1.24035 22.9959 2.33628 21.9059C3.43035 20.8179 4.74622 20.2738 6.28389 20.2738H9.07964V14.7129C9.07964 10.8667 10.443 7.58763 13.1698 4.87578C15.8947 2.16579 19.1909 0.810791 23.0584 0.810791C26.9258 0.810791 30.223 2.16579 32.9498 4.87578C35.6747 7.58763 37.0372 10.8667 37.0372 14.7129V20.2738H39.8329C41.3706 20.2738 42.6874 20.8179 43.7833 21.9059C44.8774 22.9959 45.4244 24.3054 45.4244 25.8347V53.639C45.4244 55.1682 44.8774 56.4778 43.7833 57.5677C42.6874 58.6558 41.3706 59.1999 39.8329 59.1999H6.28389ZM6.28389 53.639H39.8329V25.8347H6.28389V53.639ZM23.0584 45.2977C24.5961 45.2977 25.9129 44.7537 27.0088 43.6656C28.1029 42.5757 28.6499 41.2661 28.6499 39.7368C28.6499 38.2076 28.1029 36.898 27.0088 35.8081C25.9129 34.72 24.5961 34.176 23.0584 34.176C21.5207 34.176 20.2049 34.72 19.1108 35.8081C18.0149 36.898 17.4669 38.2076 17.4669 39.7368C17.4669 41.2661 18.0149 42.5757 19.1108 43.6656C20.2049 44.7537 21.5207 45.2977 23.0584 45.2977ZM14.6711 20.2738H31.4456V14.7129C31.4456 12.3959 30.6302 10.4265 28.9994 8.80453C27.3685 7.18261 25.3882 6.37165 23.0584 6.37165C20.7286 6.37165 18.7483 7.18261 17.1174 8.80453C15.4866 10.4265 14.6711 12.3959 14.6711 14.7129V20.2738Z" fill="#1C1B1F"/>
</svg>
